#define balloon20n_width 20
#define balloon20n_height 20
static unsigned char balloon20n_bits[] = {
   0x00, 0x00, 0x00, 0xfe, 0xff, 0x03, 0x01, 0x00, 0x04, 0x01, 0x00, 0x04,
   0x01, 0x00, 0x04, 0x01, 0x00, 0x04, 0x01, 0x00, 0x04, 0x01, 0x00, 0x04,
   0x01, 0x00, 0x04, 0x01, 0x00, 0x04, 0x01, 0x00, 0x04, 0xfe, 0x03, 0x03,
   0x00, 0x04, 0x01, 0x00, 0x08, 0x01, 0x00, 0x10, 0x01, 0x00, 0x20, 0x01,
   0x00, 0x40, 0x01, 0x00, 0x80, 0x01, 0x00, 0x00, 0x01, 0x00, 0x00, 0x00 };
