#define circle20n_width 20
#define circle20n_height 20
static unsigned char circle20n_bits[] = {
   0x00, 0x00, 0x00, 0x00, 0x00, 0x00, 0xc0, 0x1f, 0x00, 0x40, 0x10, 0x00,
   0x40, 0x10, 0x00, 0xf8, 0xff, 0x00, 0x08, 0x80, 0x00, 0x0f, 0x80, 0x07,
   0x09, 0x80, 0x04, 0x09, 0x80, 0x04, 0x09, 0x80, 0x04, 0x09, 0x80, 0x04,
   0x0f, 0x80, 0x07, 0x08, 0x80, 0x00, 0xf8, 0xff, 0x00, 0x40, 0x10, 0x00,
   0x40, 0x10, 0x00, 0xc0, 0x1f, 0x00, 0x00, 0x00, 0x00, 0x00, 0x00, 0x00 };
