#define gimp20n_width 20
#define gimp20n_height 20
static unsigned char gimp20n_bits[] = {
   0x00, 0x00, 0x00, 0x00, 0x00, 0x00, 0xff, 0xff, 0x07, 0x01, 0x00, 0x04,
   0x01, 0x00, 0x04, 0x81, 0x1f, 0x04, 0x81, 0x00, 0x04, 0x81, 0x00, 0x04,
   0x81, 0x00, 0x04, 0x81, 0x00, 0x04, 0x81, 0x1c, 0x04, 0x81, 0x10, 0x04,
   0x81, 0x10, 0x04, 0x81, 0x10, 0x04, 0x81, 0x1f, 0x04, 0x01, 0x00, 0x04,
   0x01, 0x00, 0x04, 0xff, 0xff, 0x07, 0x00, 0x00, 0x00, 0x00, 0x00, 0x00 };
