#define gnuplot20_width 20
#define gnuplot20_height 20
static unsigned char gnuplot20_bits[] = {
   0xff, 0xff, 0x0f, 0x21, 0x84, 0x08, 0x31, 0x00, 0x08, 0x21, 0x00, 0x08,
   0x11, 0x00, 0x08, 0x25, 0x00, 0x08, 0x39, 0x00, 0x0c, 0x01, 0x00, 0x0a,
   0x11, 0x00, 0x08, 0xf7, 0x9c, 0x0b, 0x21, 0x00, 0x09, 0x01, 0x60, 0x08,
   0xc1, 0x81, 0x08, 0x41, 0x81, 0x08, 0x81, 0x00, 0x08, 0x01, 0x21, 0x08,
   0x01, 0x0d, 0x08, 0x01, 0x00, 0x08, 0x21, 0x84, 0x08, 0xff, 0xff, 0x0f };
