#define haskell_width 13
#define haskell_height 10
static unsigned char haskell_bits[] = {
   0x00, 0x00, 0x36, 0x00, 0x3c, 0x00, 0x68, 0x0f, 0xd8, 0x0e, 0xd8, 0x0e,
   0xe8, 0x0d, 0x3c, 0x03, 0x36, 0x02, 0x00, 0x00 };
