#define meter20n_width 20
#define meter20n_height 20
static unsigned char meter20n_bits[] = {
   0x00, 0x00, 0x00, 0xfe, 0xff, 0x07, 0x02, 0x00, 0x04, 0x02, 0x00, 0x04,
   0x82, 0x2f, 0x04, 0x42, 0x30, 0x04, 0x22, 0x50, 0x04, 0x12, 0x88, 0x04,
   0x0a, 0x08, 0x05, 0xfe, 0xff, 0x07, 0xfe, 0xff, 0x07, 0xfe, 0xff, 0x07,
   0xfe, 0xf9, 0x07, 0xfe, 0xff, 0x07, 0xfe, 0xff, 0x07, 0xfe, 0xff, 0x07,
   0xfe, 0xff, 0x07, 0xfe, 0xff, 0x07, 0xfe, 0xff, 0x07, 0x00, 0x00, 0x00 };
