#define mosaic20n_width 20
#define mosaic20n_height 20
static unsigned char mosaic20n_bits[] = {
   0x00, 0x00, 0x00, 0x00, 0x00, 0x00, 0xff, 0xff, 0x07, 0x01, 0x08, 0x04,
   0x01, 0x08, 0x04, 0x01, 0x08, 0x04, 0x01, 0x08, 0x04, 0xff, 0x0f, 0x04,
   0x01, 0xf8, 0x07, 0x01, 0x08, 0x04, 0x01, 0x08, 0x04, 0x01, 0x08, 0x04,
   0xff, 0x0f, 0x04, 0x01, 0x08, 0x04, 0x01, 0x08, 0x04, 0x01, 0x08, 0x04,
   0x01, 0x08, 0x04, 0xff, 0xff, 0x07, 0x00, 0x00, 0x00, 0x00, 0x00, 0x00 };
