#define mtall20n_width 20
#define mtall20n_height 20
static unsigned char mtall20n_bits[] = {
   0x00, 0x00, 0x00, 0x00, 0x00, 0x00, 0xff, 0xff, 0x07, 0x01, 0x00, 0x04,
   0x01, 0x00, 0x04, 0x01, 0x00, 0x04, 0x01, 0x00, 0x04, 0x01, 0x00, 0x04,
   0x01, 0x00, 0x04, 0x01, 0x00, 0x04, 0x01, 0x00, 0x04, 0xff, 0xff, 0x07,
   0x41, 0x10, 0x04, 0x41, 0x10, 0x04, 0x41, 0x10, 0x04, 0x41, 0x10, 0x04,
   0x41, 0x10, 0x04, 0xff, 0xff, 0x07, 0x00, 0x00, 0x00, 0x00, 0x00, 0x00 };
