#define onebig20n_width 20
#define onebig20n_height 20
static unsigned char onebig20n_bits[] = {
   0x00, 0x00, 0x00, 0x00, 0x00, 0x00, 0xff, 0xff, 0x07, 0x01, 0x20, 0x04,
   0x01, 0x20, 0x04, 0x01, 0x20, 0x04, 0x01, 0x20, 0x04, 0x01, 0xe0, 0x07,
   0x01, 0x20, 0x04, 0x01, 0x20, 0x04, 0x01, 0x20, 0x04, 0x01, 0x20, 0x04,
   0xff, 0xff, 0x07, 0x01, 0x02, 0x04, 0x01, 0x02, 0x04, 0x01, 0x02, 0x04,
   0x01, 0x02, 0x04, 0xff, 0xff, 0x07, 0x00, 0x00, 0x00, 0x00, 0x00, 0x00 };
