#define random_width 14
#define random_height 14
static unsigned char random_bits[] = {
   0x00, 0x00, 0x00, 0x00, 0x00, 0x00, 0x00, 0x00, 0x1c, 0x0f, 0xb0, 0x09,
   0xc0, 0x00, 0x60, 0x00, 0xb0, 0x09, 0x1c, 0x0f, 0x00, 0x00, 0x00, 0x00,
   0x00, 0x00, 0x00, 0x00 };
