#define repeat_width 14
#define repeat_height 12
static unsigned char repeat_bits[] = {
   0x00, 0x08, 0x00, 0x08, 0xff, 0x3f, 0x03, 0x18, 0x03, 0x08, 0x03, 0x20,
   0x01, 0x30, 0x00, 0x30, 0x06, 0x30, 0xff, 0x3f, 0x04, 0x00, 0x04, 0x00 };
