#define stack3n_width 20
#define stack3n_height 20
static unsigned char stack3n_bits[] = {
   0x00, 0x00, 0x00, 0xfe, 0x01, 0x00, 0x02, 0x03, 0x00, 0x02, 0x05, 0x00,
   0x02, 0x09, 0x00, 0x02, 0x1f, 0x00, 0x02, 0x30, 0x00, 0x02, 0x50, 0x00,
   0x02, 0xd0, 0x00, 0x02, 0x50, 0x01, 0x02, 0x50, 0x01, 0x02, 0x50, 0x01,
   0x02, 0x50, 0x01, 0x02, 0x50, 0x01, 0xfe, 0x5f, 0x01, 0x08, 0x40, 0x01,
   0xf8, 0x7f, 0x01, 0x20, 0x00, 0x01, 0xe0, 0xff, 0x01, 0x00, 0x00, 0x00 };
