#define tab1_20n_width 20
#define tab1_20n_height 20
static unsigned char tab1_20n_bits[] = {
   0x00, 0x00, 0x00, 0x00, 0x00, 0x00, 0xff, 0xff, 0x07, 0x01, 0x00, 0x04,
   0x01, 0x00, 0x04, 0xff, 0xff, 0x07, 0x01, 0x00, 0x04, 0x01, 0x00, 0x04,
   0x01, 0x00, 0x04, 0x01, 0x00, 0x04, 0x01, 0x00, 0x04, 0x01, 0x00, 0x04,
   0x01, 0x00, 0x04, 0x01, 0x00, 0x04, 0x01, 0x00, 0x04, 0x01, 0x00, 0x04,
   0x01, 0x00, 0x04, 0xff, 0xff, 0x07, 0x00, 0x00, 0x00, 0x00, 0x00, 0x00 };
