#define tab2_20n_width 20
#define tab2_20n_height 20
static unsigned char tab2_20n_bits[] = {
   0x00, 0x00, 0x00, 0x00, 0x00, 0x00, 0xff, 0xff, 0x07, 0x81, 0x00, 0x04,
   0x81, 0x00, 0x04, 0x81, 0xff, 0x07, 0x81, 0x00, 0x04, 0x81, 0x00, 0x04,
   0x81, 0x00, 0x04, 0x81, 0x00, 0x04, 0x81, 0x00, 0x04, 0x81, 0x00, 0x04,
   0x81, 0x00, 0x04, 0x81, 0x00, 0x04, 0x81, 0x00, 0x04, 0x81, 0x00, 0x04,
   0x81, 0x00, 0x04, 0xff, 0xff, 0x07, 0x00, 0x00, 0x00, 0x00, 0x00, 0x00 };
