#define xmonad_width 9
#define xmonad_height 14
static unsigned char xmonad_bits[] = {
   0x02, 0x00, 0x46, 0x00, 0x0c, 0x00, 0x08, 0x00, 0x18, 0x00, 0x38, 0x00,
   0x28, 0x00, 0x44, 0x00, 0xc6, 0x00, 0x82, 0x00, 0x00, 0x00, 0x00, 0x00,
   0x00, 0x00, 0x00, 0x00 };
