#define flag20n_width 20
#define flag20n_height 20
static unsigned char flag20n_bits[] = {
   0xff, 0xff, 0x07, 0x01, 0x00, 0x04, 0x01, 0x00, 0x04, 0x01, 0x00, 0x04,
   0x01, 0x00, 0x04, 0x01, 0x00, 0x04, 0x01, 0x00, 0x04, 0x01, 0x00, 0x04,
   0x01, 0x00, 0x04, 0xff, 0xff, 0x07, 0x01, 0x00, 0x00, 0x01, 0x00, 0x00,
   0x01, 0x00, 0x00, 0x01, 0x00, 0x00, 0x01, 0x00, 0x00, 0x01, 0x00, 0x00,
   0x01, 0x00, 0x00, 0x01, 0x00, 0x00, 0x01, 0x00, 0x00, 0x01, 0x00, 0x00 };
