#define NSP_width 32
#define NSP_height 12
static char NSP_bits[] = {
  0xFF, 0xF1, 0xFF, 0x7F, 0xFF, 0xF9, 0xFF, 0xFF, 0xFF, 0xFB, 0xFF, 0xFF, 
  0xC7, 0x7B, 0x00, 0xE0, 0xC7, 0x7B, 0x00, 0xF0, 0xC7, 0xFB, 0x9F, 0xFF, 
  0xC7, 0xF3, 0x9F, 0x7F, 0xC7, 0x03, 0x3C, 0x00, 0xC7, 0x03, 0x3C, 0x00, 
  0xC7, 0xFF, 0xBF, 0x03, 0xC3, 0xFF, 0x9F, 0x03, 0x81, 0xFF, 0x8F, 0x03, 
  };
